<?xml version="1.0" standalone="no"?>
<!DOCTYPE svg PUBLIC "-//W3C//DTD SVG 20010904//EN"
 "http://www.w3.org/TR/2001/REC-SVG-20010904/DTD/svg10.dtd">
<svg version="1.0" xmlns="http://www.w3.org/2000/svg"
 width="512.000000pt" height="512.000000pt" viewBox="0 0 512.000000 512.000000"
 preserveAspectRatio="xMidYMid meet">
<metadata>
Created by potrace 1.14, written by Peter Selinger 2001-2017
</metadata>
<g transform="translate(0.000000,512.000000) scale(0.100000,-0.100000)"
fill="#000000" stroke="none">
<path d="M1711 3710 c-182 -25 -356 -113 -473 -238 -62 -67 -65 -112 -10 -141
30 -16 53 -8 126 46 79 59 221 127 319 153 43 12 126 27 184 33 96 11 108 14
126 39 27 36 17 75 -26 93 -44 18 -168 25 -246 15z"/>
<path d="M3187 3690 c-72 -18 -97 -37 -97 -73 0 -67 11 -71 182 -78 194 -8
272 -28 444 -115 125 -63 133 -65 160 -53 39 19 52 60 30 93 -42 66 -186 156
-321 202 -69 23 -99 28 -220 30 -77 2 -157 -1 -178 -6z"/>
<path d="M3223 3006 c-161 -31 -324 -147 -387 -278 -25 -51 -27 -61 -16 -93
16 -48 60 -75 122 -75 42 0 53 5 98 45 136 121 265 159 401 119 64 -19 107
-43 174 -99 64 -53 86 -65 125 -65 67 0 120 49 120 111 0 70 -106 201 -213
264 -120 70 -284 97 -424 71z"/>
<path d="M1657 2995 c-109 -22 -212 -78 -290 -156 -73 -73 -123 -163 -113
-203 16 -64 89 -105 155 -86 18 5 50 25 72 45 194 175 394 176 592 5 48 -41
65 -50 96 -50 54 0 104 36 116 84 8 33 5 45 -20 93 -107 204 -366 319 -608
268z"/>
<path d="M3189 1790 c-110 -70 -263 -140 -366 -167 -86 -23 -118 -26 -258 -27
-133 0 -175 3 -248 22 -116 29 -233 78 -348 146 -130 78 -189 74 -176 -10 21
-127 247 -345 442 -427 117 -49 181 -61 325 -61 191 0 306 34 465 139 200 131
352 346 289 409 -25 25 -56 19 -125 -24z"/>
</g>
</svg>
